<svg width="20" height="21" viewBox="0 0 20 21" fill="none" xmlns="http://www.w3.org/2000/svg">
<path d="M10.0003 17.6829L9.91695 17.5578C9.33808 16.6895 9.04864 16.2553 8.66624 15.941C8.32771 15.6628 7.93763 15.454 7.51833 15.3267C7.0447 15.1829 6.52292 15.1829 5.47934 15.1829H4.33366C3.40024 15.1829 2.93353 15.1829 2.57701 15.0012C2.2634 14.8414 2.00844 14.5864 1.84865 14.2728C1.66699 13.9163 1.66699 13.4496 1.66699 12.5162V5.34953C1.66699 4.41611 1.66699 3.9494 1.84865 3.59288C2.00844 3.27927 2.2634 3.02431 2.57701 2.86452C2.93353 2.68286 3.40024 2.68286 4.33366 2.68286H4.66699C6.53383 2.68286 7.46725 2.68286 8.18029 3.04617C8.8075 3.36575 9.31744 3.87569 9.63701 4.50289C10.0003 5.21593 10.0003 6.14935 10.0003 8.01619M10.0003 17.6829V8.01619M10.0003 17.6829L10.0837 17.5578C10.6626 16.6895 10.952 16.2553 11.3344 15.941C11.6729 15.6628 12.063 15.454 12.4823 15.3267C12.956 15.1829 13.4777 15.1829 14.5213 15.1829H15.667C16.6004 15.1829 17.0671 15.1829 17.4236 15.0012C17.7372 14.8414 17.9922 14.5864 18.152 14.2728C18.3337 13.9163 18.3337 13.4496 18.3337 12.5162V5.34953C18.3337 4.41611 18.3337 3.9494 18.152 3.59288C17.9922 3.27927 17.7372 3.02431 17.4236 2.86452C17.0671 2.68286 16.6004 2.68286 15.667 2.68286H15.3337C13.4668 2.68286 12.5334 2.68286 11.8204 3.04617C11.1932 3.36575 10.6832 3.87569 10.3636 4.50289C10.0003 5.21593 10.0003 6.14935 10.0003 8.01619" stroke="#1C1B1F" stroke-width="1.66667" stroke-linecap="round" stroke-linejoin="round"/>
</svg>
