<svg width="41" height="41" viewBox="0 0 41 41" fill="none" xmlns="http://www.w3.org/2000/svg">
<path d="M17.084 16.9961V14.1961C17.084 13.076 17.084 12.5159 17.302 12.0881C17.4937 11.7118 17.7997 11.4058 18.176 11.2141C18.6038 10.9961 19.1639 10.9961 20.284 10.9961H27.884C29.0041 10.9961 29.5641 10.9961 29.992 11.2141C30.3683 11.4058 30.6743 11.7118 30.866 12.0881C31.084 12.5159 31.084 13.076 31.084 14.1961V21.7961C31.084 22.9162 31.084 23.4763 30.866 23.9041C30.6743 24.2804 30.3683 24.5864 29.992 24.7781C29.5641 24.9961 29.0041 24.9961 27.884 24.9961H25.084M14.284 30.9961H21.884C23.0041 30.9961 23.5641 30.9961 23.992 30.7781C24.3683 30.5864 24.6743 30.2804 24.866 29.9041C25.084 29.4763 25.084 28.9162 25.084 27.7961V20.1961C25.084 19.076 25.084 18.5159 24.866 18.0881C24.6743 17.7118 24.3683 17.4058 23.992 17.2141C23.5641 16.9961 23.0041 16.9961 21.884 16.9961H14.284C13.1639 16.9961 12.6038 16.9961 12.176 17.2141C11.7997 17.4058 11.4937 17.7118 11.302 18.0881C11.084 18.5159 11.084 19.076 11.084 20.1961V27.7961C11.084 28.9162 11.084 29.4763 11.302 29.9041C11.4937 30.2804 11.7997 30.5864 12.176 30.7781C12.6038 30.9961 13.1639 30.9961 14.284 30.9961Z" stroke="#939393" stroke-width="2" stroke-linecap="round" stroke-linejoin="round"/>
</svg>
