<svg width="41" height="41" viewBox="0 0 41 41" fill="none" xmlns="http://www.w3.org/2000/svg">
<rect x="0.421875" y="0.0239258" width="40" height="40" rx="12" fill="#EAEAEA"/>
<g clip-path="url(#clip0_2636_10238)">
<path d="M17.0898 18.0238C17.0898 17.5571 17.0898 17.3237 17.1807 17.1454C17.2606 16.9886 17.3881 16.8612 17.5449 16.7813C17.7231 16.6904 17.9565 16.6904 18.4232 16.6904H22.4232C22.8899 16.6904 23.1232 16.6904 23.3015 16.7813C23.4583 16.8612 23.5858 16.9886 23.6657 17.1454C23.7565 17.3237 23.7565 17.5571 23.7565 18.0238V22.0238C23.7565 22.4905 23.7565 22.7238 23.6657 22.9021C23.5858 23.0589 23.4583 23.1864 23.3015 23.2663C23.1232 23.3571 22.8899 23.3571 22.4232 23.3571H18.4232C17.9565 23.3571 17.7231 23.3571 17.5449 23.2663C17.3881 23.1864 17.2606 23.0589 17.1807 22.9021C17.0898 22.7238 17.0898 22.4905 17.0898 22.0238V18.0238Z" fill="#101012"/>
<path d="M20.4232 28.3571C25.0255 28.3571 28.7565 24.6261 28.7565 20.0238C28.7565 15.4214 25.0255 11.6904 20.4232 11.6904C15.8208 11.6904 12.0898 15.4214 12.0898 20.0238C12.0898 24.6261 15.8208 28.3571 20.4232 28.3571Z" stroke="#101012" stroke-width="1.66667" stroke-linecap="round" stroke-linejoin="round"/>
<path d="M17.0898 18.0238C17.0898 17.5571 17.0898 17.3237 17.1807 17.1454C17.2606 16.9886 17.3881 16.8612 17.5449 16.7813C17.7231 16.6904 17.9565 16.6904 18.4232 16.6904H22.4232C22.8899 16.6904 23.1232 16.6904 23.3015 16.7813C23.4583 16.8612 23.5858 16.9886 23.6657 17.1454C23.7565 17.3237 23.7565 17.5571 23.7565 18.0238V22.0238C23.7565 22.4905 23.7565 22.7238 23.6657 22.9021C23.5858 23.0589 23.4583 23.1864 23.3015 23.2663C23.1232 23.3571 22.8899 23.3571 22.4232 23.3571H18.4232C17.9565 23.3571 17.7231 23.3571 17.5449 23.2663C17.3881 23.1864 17.2606 23.0589 17.1807 22.9021C17.0898 22.7238 17.0898 22.4905 17.0898 22.0238V18.0238Z" stroke="#101012" stroke-width="1.66667" stroke-linecap="round" stroke-linejoin="round"/>
</g>
<defs>
<clipPath id="clip0_2636_10238">
<rect width="20" height="20" fill="white" transform="translate(10.4219 10.0239)"/>
</clipPath>
</defs>
</svg>
