<svg width="33" height="33" viewBox="0 0 33 33" fill="none" xmlns="http://www.w3.org/2000/svg">
<rect x="0.135742" y="0.61438" width="32.0007" height="32" rx="12" fill="#E1E2F8"/>
<g clip-path="url(#clip0_2636_8459)">
<path d="M16.1358 8.61429L17.7454 12.7992C17.971 13.3858 18.0838 13.6791 18.2593 13.9258C18.4147 14.1444 18.6058 14.3355 18.8244 14.491C19.0711 14.6664 19.3644 14.7792 19.951 15.0048L24.1359 16.6144L19.951 18.224C19.3644 18.4496 19.0711 18.5624 18.8244 18.7378C18.6058 18.8933 18.4147 19.0843 18.2593 19.303C18.0838 19.5497 17.971 19.843 17.7454 20.4296L16.1358 24.6145L14.5262 20.4296C14.3006 19.843 14.1878 19.5497 14.0124 19.303C13.8569 19.0843 13.6659 18.8933 13.4472 18.7378C13.2005 18.5624 12.9072 18.4496 12.3207 18.224L8.13574 16.6144L12.3207 15.0048C12.9072 14.7792 13.2005 14.6664 13.4472 14.491C13.6659 14.3355 13.8569 14.1444 14.0124 13.9258C14.1878 13.6791 14.3006 13.3858 14.5262 12.7992L16.1358 8.61429Z" stroke="#3840EB" stroke-width="1.60002" stroke-linecap="round" stroke-linejoin="round"/>
</g>
<defs>
<clipPath id="clip0_2636_8459">
<rect width="19.2002" height="19.2002" fill="white" transform="translate(6.53613 7.01427)"/>
</clipPath>
</defs>
</svg>
