<svg width="41" height="41" viewBox="0 0 41 41" fill="none" xmlns="http://www.w3.org/2000/svg">
<path d="M26.084 10.9961V21.9961M31.084 18.7961V14.1961C31.084 13.076 31.084 12.5159 30.8661 12.0881C30.6743 11.7118 30.3683 11.4058 29.992 11.2141C29.5642 10.9961 29.0041 10.9961 27.884 10.9961H17.202C15.7406 10.9961 15.0098 10.9961 14.4196 11.2635C13.8994 11.4992 13.4573 11.8785 13.1453 12.3568C12.7912 12.8995 12.6801 13.6217 12.4579 15.0662L11.9348 18.4662C11.6417 20.3714 11.4951 21.324 11.7778 22.0652C12.026 22.7158 12.4927 23.2598 13.098 23.604C13.7876 23.9961 14.7514 23.9961 16.679 23.9961H17.484C18.0441 23.9961 18.3241 23.9961 18.538 24.1051C18.7262 24.201 18.8792 24.3539 18.975 24.5421C19.084 24.756 19.084 25.036 19.084 25.5961V28.5303C19.084 29.8921 20.188 30.9961 21.5499 30.9961C21.8747 30.9961 22.1691 30.8048 22.301 30.508L25.6617 22.9463C25.8146 22.6023 25.891 22.4304 26.0118 22.3043C26.1186 22.1928 26.2498 22.1076 26.395 22.0553C26.5593 21.9961 26.7475 21.9961 27.1238 21.9961H27.884C29.0041 21.9961 29.5642 21.9961 29.992 21.7781C30.3683 21.5864 30.6743 21.2804 30.8661 20.9041C31.084 20.4763 31.084 19.9162 31.084 18.7961Z" stroke="#939393" stroke-width="2" stroke-linecap="round" stroke-linejoin="round"/>
</svg>
