<svg width="41" height="40" viewBox="0 0 41 40" fill="none" xmlns="http://www.w3.org/2000/svg">
<path d="M20.6172 26.6667H28.1172M13.1172 26.6667H14.5126C14.9203 26.6667 15.1241 26.6667 15.3159 26.6206C15.486 26.5798 15.6486 26.5125 15.7977 26.4211C15.9659 26.318 16.11 26.1739 16.3983 25.8856L26.8672 15.4167C27.5576 14.7263 27.5576 13.607 26.8672 12.9167C26.1769 12.2263 25.0576 12.2263 24.3672 12.9167L13.8982 23.3856C13.61 23.6739 13.4659 23.818 13.3628 23.9862C13.2714 24.1353 13.2041 24.2979 13.1632 24.468C13.1172 24.6598 13.1172 24.8636 13.1172 25.2713V26.6667Z" stroke="#747474" stroke-width="2" stroke-linecap="round" stroke-linejoin="round"/>
</svg>
