<svg width="285" height="127" viewBox="0 0 285 127" fill="none" xmlns="http://www.w3.org/2000/svg">
<g clip-path="url(#clip0_2636_12092)">
<path d="M81.2159 124.214C121.499 124.214 154.154 123.713 154.154 123.094C154.154 122.476 121.499 121.975 81.2159 121.975C40.933 121.975 8.27734 122.476 8.27734 123.094C8.27734 123.713 40.933 124.214 81.2159 124.214Z" fill="#C4B182"/>
<path d="M36.11 101.131H34.4102V108.691H36.11V101.131Z" fill="#05076A"/>
<path d="M37.0394 106.787H33.4727V109.435H37.0394V106.787Z" fill="#0D1382"/>
<path d="M37.2302 109.041H33.25V114.558H37.2302V109.041Z" fill="#97CCCC"/>
<path d="M21.7593 116.497H21.0117V120.602H21.7593V116.497Z" fill="#05076A"/>
<path d="M33.498 109.062L19.7656 115.874H20.6803L34.659 109.02L33.498 109.062Z" fill="#97CCCC"/>
<path d="M20.7632 118.446L20.6797 115.874L34.6585 109.02L33.205 114.495L20.7632 118.446Z" fill="#79B2B1"/>
<path d="M19.7656 115.875H20.6803L20.7638 118.447H19.8074L19.7656 115.875Z" fill="#428481"/>
<path d="M22.8738 119.152H20.0547V121.929H22.8738V119.152Z" fill="#05076A"/>
<path d="M23.4289 123.136C23.7212 123.136 23.9593 122.898 23.9593 122.606V119.787C23.9593 119.494 23.7212 119.256 23.4289 119.256C23.1365 119.256 22.8984 119.494 22.8984 119.787V122.606C22.8984 122.898 23.1365 123.136 23.4289 123.136Z" fill="#79B2B1"/>
<path d="M19.4874 123.138C19.7798 123.138 20.0179 122.9 20.0179 122.608V119.789C20.0179 119.496 19.7798 119.258 19.4874 119.258C19.1951 119.258 18.957 119.496 18.957 119.789V122.608C18.957 122.9 19.1951 123.138 19.4874 123.138Z" fill="#79B2B1"/>
<path d="M49.3257 116.497H48.5781V120.602H49.3257V116.497Z" fill="#05076A"/>
<path d="M36.8368 109.062L50.5692 115.874H49.6545L35.6758 109.02L36.8368 109.062Z" fill="#97CCCC"/>
<path d="M49.571 118.446L49.6545 115.874L35.6758 109.02L37.1292 114.495L49.571 118.446Z" fill="#79B2B1"/>
<path d="M50.5685 115.875H49.6538L49.5703 118.447H50.5267L50.5685 115.875Z" fill="#428481"/>
<path d="M50.2762 119.152H47.457V121.929H50.2762V119.152Z" fill="#05076A"/>
<path d="M46.9054 123.138C46.6131 123.138 46.375 122.9 46.375 122.608V119.789C46.375 119.496 46.6131 119.258 46.9054 119.258C47.1978 119.258 47.4358 119.496 47.4358 119.789V122.608C47.4358 122.9 47.1978 123.138 46.9054 123.138Z" fill="#79B2B1"/>
<path d="M50.8468 123.138C50.5545 123.138 50.3164 122.9 50.3164 122.608V119.789C50.3164 119.496 50.5545 119.258 50.8468 119.258C51.1392 119.258 51.3772 119.496 51.3772 119.789V122.608C51.3772 122.9 51.1392 123.138 50.8468 123.138Z" fill="#79B2B1"/>
<path d="M37.1108 98.9136H33.4062V103.04H37.1108V98.9136Z" fill="#0D1382"/>
<path d="M22.1556 50.9426C22.1556 50.9426 20.4224 60.6781 37.0115 92.7536H18.685C2.09587 60.6781 3.82913 50.9426 3.82913 50.9426H22.1556Z" fill="#79B2B1"/>
<path d="M23.8978 50.9419C23.8978 50.9419 22.1646 60.6773 38.7537 92.7529H20.4271C3.83806 60.6773 5.57131 50.9419 5.57131 50.9419H23.8978Z" fill="#97CCCC"/>
<path d="M5.12845 56.6933H22.5737C24.3446 56.6933 25.6643 55.3485 25.301 53.9159L23.7181 47.6846C23.4466 46.6196 22.3064 45.8511 20.9908 45.8511H3.54555C1.77471 45.8511 0.454937 47.1959 0.818293 48.6285L2.40119 54.8598C2.67266 55.9248 3.81285 56.6933 5.12845 56.6933Z" fill="#97CCCC"/>
<path d="M3.54555 45.8569H5.6881C3.91726 45.8569 2.59748 47.2018 2.96084 48.6343L4.54374 54.8657C4.81521 55.9307 5.95122 56.6991 7.271 56.6991H5.12845C3.80867 56.6991 2.67266 55.9348 2.40119 54.8657L0.818293 48.6343C0.454937 47.2018 1.77471 45.8569 3.54555 45.8569Z" fill="#79B2B1"/>
<path d="M14.3089 96.404H46.4972C46.4972 93.0461 43.7741 90.3188 40.412 90.3188H20.3899C17.0319 90.3188 14.3047 93.0419 14.3047 96.404H14.3089Z" fill="#79B2B1"/>
<path d="M15.2775 93.1128C14.6678 94.0609 14.3086 95.1885 14.3086 96.3997H46.4969C46.4969 95.1885 46.1378 94.0609 45.528 93.1128H15.2775Z" fill="#05076A"/>
<path d="M37.0898 96.404H63.3058C63.3058 93.0461 60.5827 90.3188 57.2206 90.3188H43.175C39.8171 90.3188 37.0898 93.0419 37.0898 96.404Z" fill="#97CCCC"/>
<path d="M38.1253 93.0132C37.4738 93.9821 37.0938 95.1474 37.0938 96.4045H63.3097C63.3097 95.1474 62.9296 93.9821 62.2781 93.0132H38.1295H38.1253Z" fill="#0D1382"/>
<path d="M40.7726 96.3823H29.7383V99.0553H40.7726V96.3823Z" fill="#05076A"/>
<path d="M108.662 62.9123C109.794 62.9206 110.717 62.0143 110.726 60.8867L110.759 58.6731C110.767 57.5413 109.861 56.6183 108.733 56.6099C107.602 56.6016 106.679 57.5079 106.67 58.6355L106.637 60.8491C106.628 61.9809 107.535 62.9039 108.662 62.9123Z" fill="#A03232"/>
<path d="M110.502 25.4917C113.162 29.1754 112.849 29.3466 112.753 39.9174C112.653 51.3777 113.317 59.5636 113.317 59.5636L104.262 59.6639C104.262 59.6639 102.216 43.0873 102.934 38.8941C103.652 34.7009 110.506 25.4917 110.506 25.4917H110.502Z" fill="#E1E2F8"/>
<path d="M104.319 59.6685C104.545 54.2265 105.242 48.8054 106.591 43.5263C106.909 42.2775 107.226 41.0162 107.706 39.8175C108.32 38.2847 109.189 36.894 109.281 35.2025C109.406 32.8887 108.83 30.5874 108.542 28.2778C106.457 31.335 103.4 36.1756 102.937 38.8987C102.222 43.0919 104.265 59.6685 104.265 59.6685H104.319Z" fill="#CFD1FD"/>
<path d="M105.645 61.051C105.645 61.051 106.485 60.5206 106.911 60.341C107.337 60.1614 108.381 60.2992 108.807 60.4621C109.233 60.625 110.607 60.9674 110.983 61.3433C111.359 61.7192 111.726 61.9197 111.726 61.9197C111.726 61.9197 112.528 61.7025 112.954 62.2079C113.38 62.7132 113.881 63.2812 113.719 63.3648C113.556 63.4483 111.885 62.4835 111.885 62.4835C111.885 62.4835 112.47 63.8993 110.853 64.1959C109.237 64.4924 107.834 63.1225 107.07 62.684C106.305 62.2454 106.03 61.8612 105.424 62.3332C104.818 62.8051 103.682 64.459 103.144 63.8618C102.605 63.2645 103.833 62.1828 103.979 61.5856C104.125 60.9883 105.136 61.1637 105.637 61.0426L105.645 61.051Z" fill="#AD3C3A"/>
<path d="M108.793 61.7349L110 64.2199" stroke="#771C1C" stroke-width="0.208825" stroke-miterlimit="10"/>
<path d="M110.188 61.9399L111.278 63.9196" stroke="#771C1C" stroke-width="0.208825" stroke-miterlimit="10"/>
<path d="M93.3687 119.8C92.0865 119.8 91.0508 118.76 91.0508 119.324V109.501C91.0508 106.377 92.0907 105.341 93.3687 105.341C94.6509 105.341 95.6867 106.381 95.6867 109.501V119.324C95.6867 118.765 94.6467 119.8 93.3687 119.8Z" fill="#A03232"/>
<path d="M91.0439 116.25C91.0439 116.25 92.5432 118.025 93.9089 117.749C95.2747 117.478 95.8176 115.565 95.8176 115.565C95.8176 115.565 97.6594 118.225 99.2298 118.977C100.8 119.729 103.87 119.115 104.141 122.932H89.3398C89.3398 122.932 89.7491 117.269 91.0439 116.246V116.25Z" fill="#1D566D"/>
<path d="M93.9306 41.353C102.973 41.353 103.344 46.1268 102.935 52.9512C102.526 59.7714 98.6209 114.003 98.6209 114.003H89.3281C89.3281 114.003 89.8377 41.353 93.9306 41.353Z" fill="#01085A"/>
<path d="M96.1358 86.5884C96.612 81.9566 97.4974 71.0894 96.6412 66.491C96.0272 63.2041 93.3501 67.9319 90.5226 67.3222C89.5077 88.1755 89.3281 113.999 89.3281 113.999H93.7594C93.9056 104.81 95.2045 95.7141 96.14 86.5842L96.1358 86.5884Z" fill="#000633"/>
<path d="M84.775 119.802C83.4928 119.802 82.457 118.762 82.457 119.326V109.503C82.457 106.379 83.497 105.343 84.775 105.343C86.0572 105.343 87.0929 106.383 87.0929 109.503V119.326C87.0929 118.766 86.053 119.802 84.775 119.802Z" fill="#AD3C3A"/>
<path d="M94.6825 40.1268C88.1922 39.7802 82.4871 44.391 80.5116 54.4522C77.2623 71.0121 80.6076 101.016 81.2467 114.005H91.6837C91.6837 114.005 98.2325 52.815 98.2325 47.9035C98.2325 42.9919 98.504 40.3314 94.6867 40.1268H94.6825Z" fill="#01085A"/>
<path d="M82.4579 116.252C82.4579 116.252 83.9573 118.027 85.323 117.751C86.6887 117.479 87.2317 115.567 87.2317 115.567C87.2317 115.567 89.0735 118.227 90.6439 118.979C92.2142 119.731 95.284 119.117 95.5554 122.934H80.7539C80.7539 122.934 81.1632 117.271 82.4579 116.247V116.252Z" fill="#2C6885"/>
<path d="M111.528 27.0281C111.173 25.8837 106.926 19.5647 96.9983 19.6608C89.8356 19.7276 89.4931 20.6172 87.3798 22.459C84.8029 24.7018 79.6866 39.992 79.2773 58.2391L102.607 59.7719C102.607 59.7719 104.808 43.7759 106.136 39.5785C107.465 35.3853 112.447 29.9934 111.524 27.0281H111.528Z" fill="#E1E2F8"/>
<path d="M95.5061 48.2953C95.4226 45.8353 94.5873 35.8618 93.8898 33.4812C93.8021 33.1805 84.2797 36.7138 83.9498 41.5461C83.5613 47.2136 83.979 52.8853 84.1377 58.557L96.5544 59.3756C96.095 55.7086 95.6314 51.8871 95.5103 48.2953H95.5061Z" fill="#CFD1FD"/>
<path d="M98.3818 23.9084C97.9892 22.5761 98.3484 20.9348 99.1795 19.7319C103.385 20.0744 106.401 21.6489 108.401 23.2653C106.079 26.548 101.301 29.9978 101.301 29.9978C101.301 29.9978 99.1545 26.5188 98.386 23.9084H98.3818Z" fill="#A03232"/>
<path d="M100.719 25.7156L101.514 26.1152C103.247 26.9865 105.359 26.2879 106.23 24.5547L109.02 19.0059C109.891 17.2728 109.192 15.1614 107.459 14.2901L106.664 13.8905C104.931 13.0192 102.82 13.7179 101.948 15.451L99.1588 20.9998C98.2875 22.733 98.9862 24.8443 100.719 25.7156Z" fill="#A03232"/>
<path d="M108.207 14.7954C105.914 16.0358 104.615 17.7524 103.395 20.1079C102.025 22.7642 104.941 25.9884 105.241 25.7587C105.646 25.4497 105.989 25.0446 106.235 24.5559L109.025 19.0095C109.756 17.5519 109.376 15.8312 108.207 14.7996V14.7954Z" fill="#771C1C"/>
<path d="M108.399 23.2608C106.077 26.5435 101.299 29.9933 101.299 29.9933C101.299 29.9933 99.1526 26.5143 98.3841 23.904C97.9915 22.5717 98.3507 20.9303 99.1818 19.7275C99.1818 19.7275 97.7201 19.6606 97.2063 19.6606C96.6926 19.6606 95.7738 25.2363 95.9785 27.3329C96.1831 29.4295 97.0518 29.7386 97.0518 29.7386C97.0518 29.7386 98.8937 27.7965 99.5577 28.306C100.222 28.8155 101.091 30.8119 101.091 30.8119C101.091 30.8119 101.654 29.6341 102.828 29.8388C104.002 30.0434 104.006 31.6806 104.006 31.6806C104.006 31.6806 108.353 26.9236 109.222 25.3365C110.091 23.7494 108.395 23.2566 108.395 23.2566L108.399 23.2608Z" fill="white"/>
<path d="M101.091 30.812C101.091 30.812 100.051 34.1866 98.1428 41.625C96.2341 49.0633 96.9149 59.3626 96.9149 59.3626" stroke="#CFD1FD" stroke-width="0.417651" stroke-miterlimit="10"/>
<path d="M92.0677 63.1108L92.5144 63.0038C93.4902 62.77 94.0918 61.7895 93.8581 60.8138L92.9017 56.8212C92.668 55.8454 91.6875 55.2439 90.7117 55.4776L90.265 55.5846C89.2892 55.8183 88.6876 56.7988 88.9213 57.7746L89.8777 61.7672C90.1114 62.7429 91.0919 63.3445 92.0677 63.1108Z" fill="#AD3C3A"/>
<path d="M90.7915 20.6836C85.1323 22.0744 84.1759 27.3702 83.6288 33.1004C83.0817 38.8305 86.0846 57.0443 86.6317 60.2477L96.1834 58.0633C96.1834 58.0633 93.9322 45.9222 94.1369 38.2792C94.3415 30.6404 94.9555 19.6562 90.7957 20.6794L90.7915 20.6836Z" fill="#E1E2F8"/>
<path d="M92.3345 59.4197C90.2337 59.9126 90.3381 61.3201 90.5762 62.2723C90.8142 63.2245 93.0946 62.7484 93.6668 62.7484C94.239 62.7484 94.807 65.0789 97.0915 64.2227C99.3719 63.3665 99.138 62.5605 98.2317 60.7521C97.8517 59.9919 97.4215 59.7998 97.4215 59.7998C97.4215 59.7998 98.4656 60.1339 99.0837 61.5581C99.7019 62.9823 101.46 62.4143 100.178 60.6059C98.8958 58.7974 98.2275 58.7056 97.3254 58.7056C96.4233 58.7056 93.1406 59.2276 92.3345 59.4197Z" fill="#AD3C3A"/>
<path d="M94.6992 61.6646L96.9504 64.2749" stroke="#771C1C" stroke-width="0.208825" stroke-miterlimit="10"/>
<path d="M96.1836 60.7649L98.1758 63.63" stroke="#771C1C" stroke-width="0.208825" stroke-miterlimit="10"/>
<path d="M112.918 20.4936C112.245 21.3707 111.13 21.7466 110.42 21.3289C109.71 20.9113 109.681 19.863 110.349 18.9859C111.022 18.1088 112.137 17.7329 112.847 18.1506C113.557 18.5683 113.586 19.6166 112.918 20.4936Z" fill="#AD3C3A"/>
<path d="M103.46 17.6032C102.525 21.2158 103.849 24.6782 106.409 25.3422C108.969 26.0063 110.694 23.3125 111.788 19.7499C113.217 15.0931 112.356 12.9297 109.792 12.2656C107.228 11.6015 104.392 13.9905 103.46 17.6032Z" fill="#AD3C3A"/>
<path d="M109.306 23.1742C109.306 23.1742 107.844 23.8048 106.938 22.4517" stroke="#771C1C" stroke-width="0.208825" stroke-miterlimit="10"/>
<path d="M101.97 16.429C101.97 16.429 103.398 18.4128 103.582 18.4128C103.766 18.4128 103.766 17.3061 105.102 17.1223C106.439 16.9385 106.668 16.8926 106.668 16.3831C106.668 15.8735 106.021 14.6331 106.99 14.583C107.959 14.5329 108.836 16.1951 110.724 15.9195C112.611 15.6438 113.213 14.7208 112.57 12.6451C111.922 10.5694 108.56 7.98827 104.822 9.6004C101.084 11.2125 101.965 16.4248 101.965 16.4248L101.97 16.429Z" fill="#54052D"/>
<path d="M101.369 18.062C101.561 19.1604 102.384 20.0542 103.206 20.0542C104.029 20.0542 104.539 19.1604 104.346 18.062C104.154 16.9636 103.332 16.0698 102.509 16.0698C101.686 16.0698 101.177 16.9636 101.369 18.062Z" fill="#AD3C3A"/>
<path d="M102.383 16.9673C102.383 16.9673 103.774 17.5353 103.644 18.759" stroke="#771C1C" stroke-width="0.208825" stroke-miterlimit="10"/>
<path d="M112.005 18.6389C111.942 18.806 111.867 18.9021 111.779 18.9772C111.696 19.0566 111.604 19.0942 111.508 19.1234C111.412 19.1401 111.312 19.1485 111.203 19.1151C111.094 19.0858 110.982 19.0357 110.852 18.9146L110.844 18.8728L111.416 18.7141L111.996 18.5972L112.005 18.6389Z" fill="#54052D"/>
<path d="M109.25 18.6839C109.028 18.7925 108.815 18.8301 108.611 18.8468C108.406 18.8677 108.206 18.8468 108.009 18.8134C107.813 18.7716 107.621 18.7173 107.437 18.6254C107.249 18.5377 107.07 18.425 106.898 18.2454L106.907 18.2036L108.085 18.4041L109.258 18.6421L109.25 18.6839Z" fill="#54052D"/>
<path d="M108.485 19.507C108.468 19.7033 108.318 19.7951 108.209 19.8411C108.092 19.8954 107.984 19.8912 107.879 19.8745C107.779 19.8453 107.687 19.8035 107.616 19.72C107.541 19.6406 107.478 19.5362 107.449 19.3691L107.466 19.3315C107.633 19.3858 107.8 19.436 107.967 19.4652C108.051 19.4861 108.134 19.5028 108.218 19.507C108.301 19.5111 108.393 19.507 108.456 19.4735L108.485 19.5028V19.507Z" fill="#54052D"/>
<path d="M111.716 19.8117C111.741 20.008 111.611 20.1291 111.519 20.1959C111.415 20.2711 111.306 20.292 111.206 20.3003C111.102 20.292 111.006 20.2711 110.914 20.2084C110.822 20.15 110.743 20.0581 110.676 19.8994L110.684 19.8576C110.86 19.8785 111.031 19.891 111.202 19.8827C111.29 19.8827 111.373 19.8827 111.457 19.8702C111.536 19.8576 111.628 19.8326 111.682 19.7866L111.716 19.8075V19.8117Z" fill="#54052D"/>
<path d="M109.957 20.7007C109.957 20.7007 110.078 21.9912 109.894 22.2669C109.71 22.5425 108.817 22.175 108.633 22.0205" stroke="#771C1C" stroke-width="0.208825" stroke-miterlimit="10"/>
<path d="M86.5157 122.929C86.5157 122.929 86.5157 122.428 85.7932 121.651C85.0707 120.874 83.847 121.872 81.2868 119.37C80.1006 118.214 79.5744 117.633 79.0857 117.324L76.772 111.702C76.3752 110.738 75.4355 110.107 74.3955 110.107C72.5662 110.107 71.3216 111.965 72.0149 113.657L73.698 117.754C73.0883 118.786 72.9421 122.925 72.9421 122.925H86.5116L86.5157 122.929Z" fill="#FF9D86"/>
<path d="M32.5236 80.3695C32.0391 89.0901 34.2986 90.4641 48.8955 90.4641C63.4924 90.4641 59.1613 90.4641 59.1613 90.4641L70.8931 116.384H84.4C84.4 116.384 71.4403 83.5061 70.0745 80.641C68.7088 77.7759 45.4833 76.6858 39.4816 76.2765C33.48 75.8672 32.6614 77.9137 32.5236 80.3695Z" fill="#DBF1CE"/>
<path d="M85.8797 121.745H80.6089L81.4025 119.089L80.5129 118.254L79.1513 121.745H75.0625C74.8286 121.745 74.6658 121.645 74.5614 121.499C74.4987 121.424 74.4528 121.332 74.4319 121.211C74.2398 120.029 74.0101 118.859 73.7511 117.69C73.1037 118.592 72.9492 122.927 72.9492 122.927H86.5187C86.5187 122.927 86.5103 122.468 85.8797 121.745Z" fill="#5E0230"/>
<path d="M61.5341 62.7524H66.667C67.442 62.7524 68.0703 62.1242 68.0703 61.3491V60.9941C68.0703 60.2191 67.442 59.5908 66.667 59.5908H61.5341C60.7591 59.5908 60.1308 60.2191 60.1308 60.9941V61.3491C60.1308 62.1242 60.7591 62.7524 61.5341 62.7524Z" fill="#FF9D86"/>
<path d="M41.9834 47.7581C39.8742 56.3826 41.6158 61.1396 42.1964 62.3634C42.7769 63.5871 45.287 63.9755 47.9182 63.9755C54.9514 63.9755 64.2692 64.105 64.2692 64.105L64.0102 56.9423C64.0102 56.9423 51.1925 57.4226 51.2594 56.7125C51.3262 56.0025 50.8208 45.5487 50.8208 44.8429C50.8208 44.1371 43.1569 42.9593 41.9834 47.7581Z" fill="#2A32C4"/>
<path d="M65.6552 60.8641C65.6092 59.6988 65.5424 59.7197 66.4946 59.5902C67.4469 59.4608 70.4456 59.6529 70.8842 59.6529C71.3227 59.6529 72.6258 60.5717 72.8221 60.768C73.0184 60.9643 74.6597 63.7459 74.1042 63.8879C73.5488 64.0299 72.1664 61.2274 71.9032 61.1773C71.9032 61.1773 72.797 64.08 72.5798 64.1552C72.3626 64.2303 70.7881 64.4225 70.3036 64.3974C69.8192 64.3723 67.2047 62.2924 66.9624 62.2924C66.7202 62.2924 65.7262 62.6809 65.6552 60.8641Z" fill="#FF9D86"/>
<path d="M70.2031 60.9849L72.7926 64.205" stroke="#DA5064" stroke-width="0.208825" stroke-miterlimit="10"/>
<path d="M68.9219 61.1313L71.2941 64.2261" stroke="#DA5064" stroke-width="0.208825" stroke-miterlimit="10"/>
<path d="M33.7768 62.3662C46.8618 66.1251 46.3022 85.2827 46.0265 85.8298C45.7509 86.3769 23.7198 86.5816 22.968 85.8298C22.2162 85.078 20.7837 79.9618 23.3773 72.0515C25.9709 64.137 30.9368 61.556 33.7726 62.3704L33.7768 62.3662Z" fill="#DBF1CE"/>
<path d="M43.2942 39.4571C34.7741 39.5365 30.4765 38.6385 28.2587 43.3956C21.0626 58.8194 22.1527 75.7343 22.1527 75.7343C22.1527 75.7343 44.2631 75.6382 45.6205 75.7343C46.9737 75.8303 50.1395 52.4962 51.0082 48.4283C51.8811 44.3645 50.3942 39.3945 43.2983 39.4571H43.2942Z" fill="#3840EB"/>
<path d="M22.5352 65.1046C25.4629 65.1505 39.1117 64.783 42.762 64.073C42.6409 61.3165 41.413 56.714 41.413 56.714C41.413 56.714 33.085 56.7474 30.8923 55.8244C30.5039 55.6615 35.8081 50.9379 34.1208 49.0752C33.44 48.3234 32.6089 47.8097 31.9949 46.9827C30.8589 45.4541 29.9735 43.8671 28.6621 42.6392C28.5243 42.873 28.3906 43.1236 28.2653 43.3909C24.7111 51.0047 23.1783 58.9777 22.5393 65.1046H22.5352Z" fill="#2A32C4"/>
<path d="M42.6805 48.2311C39.9825 50.4112 37.2887 44.9734 35.3633 39.4562C37.5017 39.3643 40.1161 39.4813 43.2945 39.4562C44.6852 39.4437 45.8588 39.6275 46.8403 39.9532C45.6375 43.7789 44.2342 46.9781 42.6805 48.2311Z" fill="#FF9D86"/>
<path d="M38.4061 45.06L39.0683 45.4071C40.5127 46.1641 42.2973 45.6069 43.0543 44.1625L47.4885 35.7024C48.2455 34.258 47.6883 32.4734 46.2439 31.7163L45.5817 31.3693C44.1373 30.6122 42.3527 31.1694 41.5956 32.6138L37.1615 41.0739C36.4045 42.5183 36.9617 44.303 38.4061 45.06Z" fill="#FF9D86"/>
<path d="M43.0656 38.742C43.3663 39.7527 43.8675 40.634 44.4856 41.4233L47.4844 35.6973C48.2403 34.2523 47.6848 32.4689 46.2398 31.713L45.5757 31.3663C44.8365 30.9779 44.0095 30.9361 43.2786 31.1825C42.8777 33.6968 42.3055 36.2194 43.0614 38.742H43.0656Z" fill="#DA5064"/>
<path d="M50.7634 32.2609C51.1894 33.0294 50.9722 34.0861 50.2789 34.629C49.5856 35.172 48.6793 34.9882 48.2533 34.2197C47.8273 33.4512 48.0444 32.3946 48.7377 31.8516C49.431 31.3087 50.3373 31.4924 50.7634 32.2609Z" fill="#F28670"/>
<path d="M41.4638 34.0525C42.1571 37.4939 44.734 39.8787 47.2191 39.3775C49.7041 38.8763 50.2053 36.2368 49.5161 32.7953C48.8228 29.3539 47.2023 26.4136 44.7173 26.9148C42.2323 27.416 40.7747 30.611 41.4638 34.0525Z" fill="#FF9D86"/>
<path d="M49.1444 31.255L48.5931 31.61L48.0209 31.9316L48 31.894C48.0167 31.7102 48.071 31.5891 48.1378 31.4889C48.2005 31.3845 48.2882 31.3135 48.3759 31.2508C48.4719 31.2007 48.5722 31.1548 48.6975 31.1464C48.8186 31.1339 48.9522 31.1464 49.1193 31.2132L49.1402 31.2508L49.1444 31.255Z" fill="#05076A"/>
<path d="M46.4502 32.4667L45.3643 32.6922L44.2701 32.8802L44.2617 32.8384C44.4162 32.6588 44.5833 32.5502 44.7545 32.4625C44.9258 32.3706 45.1054 32.3247 45.285 32.2829C45.4687 32.2537 45.6525 32.237 45.8446 32.2579C46.0367 32.2746 46.233 32.3163 46.4419 32.4249L46.4502 32.4667Z" fill="#05076A"/>
<path d="M46.1926 34.1742C46.3685 34.1364 46.4667 33.8992 46.4119 33.6443C46.3572 33.3895 46.1702 33.2136 45.9943 33.2514C45.8184 33.2892 45.7202 33.5264 45.775 33.7812C45.8297 34.0361 46.0167 34.212 46.1926 34.1742Z" fill="#05076A"/>
<path d="M49.1457 33.098C49.3216 33.0602 49.4198 32.823 49.3651 32.5682C49.3103 32.3133 49.1233 32.1374 48.9474 32.1752C48.7715 32.213 48.6733 32.4502 48.7281 32.7051C48.7828 32.9599 48.9698 33.1358 49.1457 33.098Z" fill="#05076A"/>
<path d="M48.2467 33.6108C48.3219 33.7737 48.8648 34.2874 49.0444 34.6132C49.224 34.939 47.9961 35.319 47.9961 35.319" stroke="#DA5064" stroke-width="0.208825" stroke-miterlimit="10"/>
<path d="M48.806 36.4995C48.806 36.4995 48.1127 36.8419 47.0352 36.4702" stroke="#DA5064" stroke-width="0.208825" stroke-miterlimit="10"/>
<path d="M46.242 28.2013C46.242 28.2013 46.1835 30.8242 44.563 31.8266C42.9425 32.8289 41.7021 33.919 41.1717 35.1302C40.6413 36.3414 40.612 40.8186 40.6413 42.8233C40.6705 44.828 40.612 47.8936 39.05 46.9497C37.488 46.0058 33.892 39.9624 33.5663 39.3443C33.2405 38.7261 36.4272 35.1302 37.1915 32.8289C37.9599 30.5277 37.3084 25.4574 41.0547 26.017C41.0547 26.017 40.967 24.6889 43.356 25.2193C45.745 25.7497 47.946 25.992 48.3386 29.3457C48.3386 29.3457 47.7497 28.0468 46.2461 28.1972L46.242 28.2013Z" fill="#05076A"/>
<path d="M39.9336 35.189C40.0714 36.0536 40.8942 36.7594 41.7713 36.7594C42.6484 36.7594 43.2539 36.0577 43.1161 35.189C42.9783 34.3203 42.1555 33.6187 41.2785 33.6187C40.4014 33.6187 39.7958 34.3203 39.9336 35.189Z" fill="#FF9D86"/>
<path d="M41.0742 34.2534C41.0742 34.2534 42.181 34.2743 42.5109 35.402" stroke="#DA5064" stroke-width="0.208825" stroke-miterlimit="10"/>
<path d="M38.7528 62.7554H43.8858C44.6608 62.7554 45.2891 62.1271 45.2891 61.3521V60.9971C45.2891 60.222 44.6608 59.5938 43.8858 59.5938H38.7528C37.9778 59.5938 37.3495 60.222 37.3495 60.9971V61.3521C37.3495 62.1271 37.9778 62.7554 38.7528 62.7554Z" fill="#FF9D86"/>
<path d="M31.5467 40.0552C26.8022 41.7007 28.4477 41.2664 23.9956 48.9428C19.5434 56.6234 18.3823 61.1382 18.9629 62.3661C19.5434 63.594 26.0629 63.9782 33.0962 63.9782C40.1294 63.9782 41.4868 64.1077 41.4868 64.1077L41.2278 56.945C41.2278 56.945 29.6756 56.8823 29.7424 56.1723C29.8093 55.4623 35.8735 47.9112 35.8735 47.2012C35.8735 46.4912 31.5509 40.0552 31.5509 40.0552H31.5467Z" fill="#3840EB"/>
<path d="M42.8739 60.866C42.828 59.7008 42.7612 59.7217 43.7134 59.5922C44.6656 59.4627 47.6644 59.6548 48.1029 59.6548C48.5414 59.6548 49.8445 60.5737 50.0408 60.77C50.2371 60.9663 51.8785 63.7478 51.323 63.8898C50.7675 64.0318 49.3851 61.2294 49.122 61.1793C49.122 61.1793 50.0158 64.0819 49.7986 64.1571C49.5814 64.2323 46.5576 64.4244 46.0731 64.3994C45.5887 64.3743 44.4276 62.2944 44.1853 62.2944C43.9431 62.2944 42.9491 62.6828 42.8781 60.866H42.8739Z" fill="#FF9D86"/>
<path d="M47.4219 60.9878L48.5621 64.2079" stroke="#DA5064" stroke-width="0.208825" stroke-miterlimit="10"/>
<path d="M46.1445 61.1333L47.0634 64.2281" stroke="#DA5064" stroke-width="0.208825" stroke-miterlimit="10"/>
<path d="M75.8712 122.929C75.8712 122.929 75.8712 122.428 75.1487 121.651C74.4261 120.874 73.2024 121.872 70.6422 119.37C69.4561 118.214 68.9299 117.633 68.4412 117.324L66.1274 111.702C65.7307 110.738 64.7909 110.107 63.751 110.107C61.9217 110.107 60.6771 111.965 61.3704 113.657L63.0535 117.754C62.4437 118.786 62.2976 122.925 62.2976 122.925H75.867L75.8712 122.929Z" fill="#FF9D86"/>
<path d="M21.879 80.3695C21.3946 89.0901 23.6541 90.4641 38.251 90.4641C52.8478 90.4641 48.5168 90.4641 48.5168 90.4641L60.2486 116.384H73.7554C73.7554 116.384 60.7957 83.5061 59.43 80.641C58.0643 77.7759 34.8387 76.6858 28.8371 76.2765C22.8355 75.8672 22.0169 77.9137 21.879 80.3695Z" fill="#E9FDDE"/>
<path d="M75.2352 121.745H69.9644L70.7579 119.089L69.8683 118.254L68.5068 121.745H64.418C64.1841 121.745 64.0212 121.645 63.9168 121.499C63.8542 121.424 63.8082 121.332 63.7873 121.211C63.5952 120.029 63.3655 118.859 63.1066 117.69C62.4592 118.592 62.3047 122.927 62.3047 122.927H75.8742C75.8742 122.927 75.8658 122.468 75.2352 121.745Z" fill="#890040"/>
<path d="M28.621 94.2675C28.8173 93.971 33.3781 86.9043 32.9855 77.5698L31.6866 77.6241C32.0625 86.5493 27.5811 93.4865 27.5352 93.5533L28.621 94.2675Z" fill="#05076A"/>
<path d="M16.3309 94.2686L17.4168 93.5545C17.3709 93.4835 12.8895 86.5296 13.2654 77.6211L13.0691 77.6127C12.4551 77.5877 11.9414 78.0805 11.9414 78.6944C11.9372 87.4693 16.143 93.9846 16.3309 94.2686Z" fill="#05076A"/>
<path d="M23.5298 74.7752C33.1149 74.7251 35.2533 80.1379 35.2533 80.1379H32.8184C32.8184 80.1379 31.3984 76.1034 21.8133 76.1577C11.418 76.212 10.8082 80.1379 10.8082 80.1379L10.7539 79.5866C10.7539 79.5866 13.1303 74.8295 23.5298 74.7752Z" fill="#101689"/>
<path d="M52.2893 65.1437H76.9474L82.6275 46.4204H59.2349C58.4831 46.4204 57.8149 46.9132 57.5977 47.6358L52.2852 65.1479L52.2893 65.1437Z" fill="#88BFBC"/>
<path d="M53.6133 65.142H78.2714L83.9514 46.4146H59.2892L53.6133 65.142Z" fill="#B3E2E1"/>
<path d="M53.1094 65.134H37.6312V64.992C37.6312 64.3697 38.1366 63.8643 38.7589 63.8643H53.1052V65.1382L53.1094 65.134Z" fill="#88BFBC"/>
<path d="M42.3821 64.7329H44.5664V64.1858H42.3821V64.7329Z" fill="#518E8B"/>
<path d="M39.0696 64.7319H41.2539V64.1848H39.0696V64.7319Z" fill="#518E8B"/>
<path d="M71.8587 55.6777C72.1553 54.7588 71.6457 54.0112 70.7269 54.0112C69.8081 54.0112 68.8224 54.7588 68.5259 55.6777C68.2293 56.5965 68.7389 57.3441 69.6577 57.3441C70.5765 57.3441 71.5622 56.5965 71.8587 55.6777Z" fill="#88BFBC"/>
<path d="M106.457 65.1427H131.115L136.795 46.4194H113.403C112.651 46.4194 111.983 46.9123 111.766 47.6348L106.453 65.1469L106.457 65.1427Z" fill="#88BFBC"/>
<path d="M107.781 65.141H132.439L138.119 46.4136H113.461L107.781 65.141Z" fill="#B3E2E1"/>
<path d="M107.277 65.133H91.7992V64.991C91.7992 64.3687 92.3046 63.8634 92.9269 63.8634H107.273V65.1372L107.277 65.133Z" fill="#88BFBC"/>
<path d="M96.5423 64.731H98.7266V64.1838H96.5423V64.731Z" fill="#518E8B"/>
<path d="M93.2376 64.731H95.4219V64.1838H93.2376V64.731Z" fill="#518E8B"/>
<path d="M126.023 55.6767C126.319 54.7579 125.81 54.0103 124.891 54.0103C123.972 54.0103 122.986 54.7579 122.69 55.6767C122.393 56.5955 122.903 57.3431 123.822 57.3431C124.741 57.3431 125.726 56.5955 126.023 55.6767Z" fill="#88BFBC"/>
<path d="M63.4967 68.228H48.2148V123.074H63.4967V68.228Z" fill="#BABDEF"/>
<path d="M63.4959 68.228H60.3594V123.074H63.4959V68.228Z" fill="#8F92CF"/>
<path d="M140.583 68.228H125.301V123.074H140.583V68.228Z" fill="#BABDEF"/>
<path d="M140.578 68.228H137.441V123.074H140.578V68.228Z" fill="#8F92CF"/>
<path d="M143.445 64.8862H30.6875V68.3653H143.445V64.8862Z" fill="#8F92CF"/>
<path d="M60.6665 64.8862H30.6875V68.3653H60.6665V64.8862Z" fill="#BABDEF"/>
<path d="M207.044 124.214C247.327 124.214 279.983 123.713 279.983 123.094C279.983 122.476 247.327 121.975 207.044 121.975C166.761 121.975 134.105 122.476 134.105 123.094C134.105 123.713 166.761 124.214 207.044 124.214Z" fill="#C4B182"/>
<path d="M253.599 109.617H249.777V114.913H253.599V109.617Z" fill="#0D1382"/>
<path d="M265.339 116.776H264.621V120.719H265.339V116.776Z" fill="#01085A"/>
<path d="M252.492 97.2495H250.859V109.278H252.492V97.2495Z" fill="#01085A"/>
<path d="M253.378 107.453H249.953V109.996H253.378V107.453Z" fill="#0D1382"/>
<path d="M253.361 109.637L266.538 116.177H265.661L252.246 109.599L253.361 109.637Z" fill="#01085A"/>
<path d="M265.582 118.645L265.661 116.177L252.246 109.599L253.637 114.853L265.582 118.645Z" fill="#0D1382"/>
<path d="M266.538 116.178H265.661L265.582 118.647H266.497L266.538 116.178Z" fill="#F4AD2F"/>
<path d="M266.261 119.324H263.555V121.993H266.261V119.324Z" fill="#01085A"/>
<path d="M263.021 123.144C262.741 123.144 262.512 122.918 262.512 122.634V119.928C262.512 119.648 262.737 119.418 263.021 119.418C263.305 119.418 263.531 119.644 263.531 119.928V122.634C263.531 122.914 263.305 123.144 263.021 123.144Z" fill="#000633"/>
<path d="M266.803 123.144C266.523 123.144 266.293 122.918 266.293 122.634V119.928C266.293 119.648 266.519 119.418 266.803 119.418C267.087 119.418 267.308 119.644 267.308 119.928V122.634C267.308 122.914 267.082 123.144 266.803 123.144Z" fill="#FFA800"/>
<path d="M238.886 116.776H238.168V120.719H238.886V116.776Z" fill="#01085A"/>
<path d="M250.153 109.637L236.98 116.177H237.853L251.268 109.599L250.153 109.637Z" fill="#01085A"/>
<path d="M237.935 118.645L237.855 116.177L251.27 109.599L249.88 114.853L237.935 118.645Z" fill="#0D1382"/>
<path d="M236.98 116.178H237.853L237.933 118.647H237.018L236.98 116.178Z" fill="#000633"/>
<path d="M239.96 119.324H237.254V121.993H239.96V119.324Z" fill="#01085A"/>
<path d="M240.486 123.144C240.766 123.144 240.995 122.918 240.995 122.634V119.928C240.995 119.648 240.77 119.418 240.486 119.418C240.202 119.418 239.98 119.644 239.98 119.928V122.634C239.98 122.914 240.206 123.144 240.486 123.144Z" fill="#000633"/>
<path d="M236.705 123.144C236.985 123.144 237.21 122.918 237.21 122.634V119.928C237.21 119.648 236.985 119.418 236.705 119.418C236.425 119.418 236.195 119.644 236.195 119.928V122.634C236.195 122.914 236.421 123.144 236.705 123.144Z" fill="#000633"/>
<path d="M253.445 95.1206H249.891V99.0799H253.445V95.1206Z" fill="#0D1382"/>
<path d="M264.243 49.0825C264.243 49.0825 265.905 58.4254 249.984 89.2104H267.576C283.497 58.4254 281.834 49.0825 281.834 49.0825H264.243Z" fill="#01085A"/>
<path d="M262.571 49.0815C262.571 49.0815 264.233 58.4244 248.312 89.2094H265.904C281.825 58.4244 280.163 49.0815 280.163 49.0815H262.571Z" fill="#B1B3E5"/>
<path d="M280.589 54.6037H263.845C262.145 54.6037 260.876 53.3131 261.227 51.9349L262.747 45.9541C263.006 44.9309 264.1 44.1958 265.365 44.1958H282.109C283.809 44.1958 285.079 45.4863 284.728 46.8646L283.207 52.8453C282.949 53.8686 281.854 54.6037 280.589 54.6037Z" fill="#CFD1FD"/>
<path d="M282.106 44.2017H280.052C281.751 44.2017 283.021 45.4922 282.67 46.8705L281.15 52.8512C280.891 53.8745 279.797 54.6095 278.531 54.6095H280.586C281.852 54.6095 282.946 53.8745 283.205 52.8512L284.725 46.8705C285.076 45.4964 283.806 44.2017 282.106 44.2017Z" fill="#01085A"/>
<path d="M271.776 92.7113H240.887C240.887 89.4871 243.501 86.8726 246.725 86.8726H265.942C269.166 86.8726 271.78 89.4871 271.78 92.7113H271.776Z" fill="#CFD1FD"/>
<path d="M270.845 89.5569C271.434 90.4674 271.776 91.5491 271.776 92.7143H240.887C240.887 91.5491 241.233 90.4674 241.818 89.5569H270.845Z" fill="#0D1382"/>
<path d="M249.909 92.7113H224.75C224.75 89.4871 227.364 86.8726 230.589 86.8726H244.071C247.295 86.8726 249.909 89.4871 249.909 92.7113Z" fill="white" stroke="black" stroke-width="0.417651" stroke-miterlimit="10"/>
<path d="M248.916 89.4558C249.542 90.3872 249.905 91.5065 249.905 92.7093H224.746C224.746 91.5023 225.114 90.383 225.736 89.4558H248.911H248.916Z" fill="#0D1382"/>
<path d="M256.959 92.686H246.371V95.2588H256.959V92.686Z" fill="#01085A"/>
<path d="M182.582 61.1637C169.1 61.4477 177.09 106.629 178.456 117.463C178.577 118.44 179.391 119.15 180.381 119.15C181.4 119.15 182.302 118.399 182.486 117.388C183.847 109.891 186.337 79.0099 186.708 68.9863C187.134 57.4549 182.582 61.1679 182.582 61.1679V61.1637Z" fill="#F4715B"/>
<path d="M178.216 77.2349C180.864 75.8107 183.499 75.8441 186.335 75.9193C186.511 73.1294 186.644 70.7362 186.707 68.9863C187.133 57.4549 182.581 61.1679 182.581 61.1679C176.896 61.2848 175.03 69.383 174.875 79.5236C175.919 78.6549 177.034 77.8781 178.216 77.2391V77.2349Z" fill="#DD553E"/>
<path d="M178.377 117.463C178.377 117.463 176.953 121.89 176.953 122.491C176.953 123.093 185.177 122.491 186.981 122.491C188.785 122.491 190.656 121.422 188.919 120.62C187.181 119.818 182.838 115.742 182.504 116.009C182.17 116.276 181.677 119.054 178.381 117.463H178.377Z" fill="#000633"/>
<path d="M189.6 121.343C189.579 121.949 188.268 122.492 186.977 122.492C185.173 122.492 176.949 123.093 176.949 122.492C176.949 122.329 177.054 121.895 177.2 121.343H189.596H189.6Z" fill="#E09105"/>
<path d="M198.489 59.1094L199.143 58.7931C199.793 58.4788 200.066 57.6972 199.751 57.0472L197.545 52.4823C197.23 51.8323 196.449 51.5601 195.799 51.8743L195.144 52.1906C194.494 52.5048 194.222 53.2865 194.536 53.9365L196.743 58.5014C197.057 59.1514 197.839 59.4236 198.489 59.1094Z" fill="#FE856A"/>
<path d="M194.181 20.1553C189.508 17.119 186.4 22.1141 186.651 33.4658C186.901 44.8176 193.575 56.8292 193.575 56.8292L200.091 54.0852C200.091 54.0852 196.361 44.212 195 39.4299C193.638 34.6436 194.933 32.9438 195.818 26.4034C196.278 23.0037 195.267 20.8611 194.181 20.1595V20.1553Z" fill="#E9FDDE"/>
<path d="M188.785 42.9753C188.735 41.9353 188.886 40.887 189.474 40.0141C190.694 38.2015 190.602 37.6251 191.525 35.4993C192.707 32.7762 192.791 29.4726 191.922 26.95C191.918 26.95 191.913 26.95 191.905 26.95C190.26 26.9375 188.622 26.8414 186.989 26.6702C186.714 28.5872 186.593 30.8592 186.651 33.4695C186.81 40.5905 189.491 47.9662 191.471 52.481C191.467 52.4643 191.462 52.4476 191.458 52.4309C190.706 49.3486 188.94 46.1577 188.785 42.9794V42.9753Z" fill="#DBF1CE"/>
<path d="M198.056 56.4695C199.577 55.9391 200.09 56.4612 201.377 57.2547C202.667 58.0524 204.279 57.9773 203.724 58.278C203.169 58.5787 201.46 58.5286 201.431 58.7374C201.402 58.9462 202.187 60.3704 202.417 60.5333C202.646 60.6962 205.04 62.3877 204.889 62.6884C204.739 62.9891 202.759 63.3232 202.367 63.3942C201.974 63.4652 200.019 61.9658 200.019 61.9658C200.019 61.9658 201.055 63.2647 201.143 63.4777C201.231 63.6907 201.105 63.8411 200.592 63.5195C200.078 63.1979 197.814 61.7069 197.488 61.2809C197.163 60.8549 196.545 58.5954 196.524 57.8854C196.503 57.1754 197.676 56.6032 198.061 56.4695H198.056Z" fill="#FE856A"/>
<path d="M171.168 53.647C157.699 53.931 168.972 106.634 170.855 117.464C171.026 118.441 171.87 119.151 172.864 119.151C173.883 119.151 174.748 118.4 174.881 117.389C175.884 109.892 176.89 79.0109 176.782 68.9873C176.656 57.4559 171.168 53.647 171.168 53.647Z" fill="#FE856A"/>
<path d="M176.741 76.1024C176.787 73.2331 176.803 70.7731 176.782 68.9814C176.657 57.4501 171.169 53.6411 171.169 53.6411C164.595 53.7789 163.915 66.4003 165.159 80.5462C168.609 78.3619 172.669 77.0003 176.741 76.1024Z" fill="#DD553E"/>
<path d="M170.854 117.463C170.854 117.463 169.43 121.89 169.43 122.491C169.43 123.093 177.653 122.491 179.457 122.491C181.262 122.491 183.133 121.422 181.395 120.62C179.658 119.818 175.314 115.742 174.98 116.009C174.646 116.277 174.153 119.054 170.858 117.463H170.854Z" fill="#01085A"/>
<path d="M182.08 121.343C182.059 121.948 180.748 122.491 179.457 122.491C177.653 122.491 169.43 123.092 169.43 122.491C169.43 122.328 169.534 121.894 169.68 121.343H182.076H182.08Z" fill="#FFA800"/>
<path d="M178.089 40.7104C168.504 39.9712 163.885 46.2903 162.883 56.1176C161.88 65.9449 163.551 75.7012 163.551 75.7012L187.411 75.6344C187.411 75.6344 188.414 59.96 187.311 50.6338C186.209 41.3077 179.393 40.8065 178.085 40.7063L178.089 40.7104Z" fill="#E1E2F8"/>
<path d="M164.796 72.4895C164.997 69.875 165.485 67.2939 165.702 64.6878C166.012 60.9916 165.936 57.1617 167.018 53.5741C167.411 52.271 167.979 50.851 169.094 49.9948C170.384 49.005 171.854 49.3433 173.316 49.7401C176.453 50.5921 179.548 51.0181 182.805 51.0765C184.317 51.1016 185.846 51.1851 187.37 51.1935C187.349 51.0055 187.333 50.8176 187.308 50.638C186.205 41.3119 179.389 40.8107 178.082 40.7104C168.497 39.9712 163.877 46.2903 162.875 56.1176C161.873 65.9449 163.543 75.7012 163.543 75.7012H164.587C164.642 74.6279 164.704 73.5587 164.784 72.4895H164.796Z" fill="#CFD1FD"/>
<path d="M186.613 15.5424C179.22 12.6147 172.442 13.0699 171.239 15.4756C170.036 17.8813 164.857 45.2207 165.459 46.624C166.06 48.0273 187.047 51.3017 187.715 51.0344C188.049 50.9007 186.32 45.7887 188.116 38.6009C188.308 37.8283 191.336 36.2621 191.524 35.4936C191.842 34.1989 192.142 30.9955 192.426 29.7801C193.566 24.9145 195.199 21.7947 195.032 21.2893C194.565 19.886 189.82 16.8121 186.608 15.5424H186.613Z" fill="#E9FDDE"/>
<path d="M183.518 34.1402C180.924 33.7226 177.307 33.6265 175.211 31.8264C173.256 30.1475 174.25 26.4721 174.267 24.2085C174.288 21.0469 174.246 17.1084 171.92 14.686C171.615 14.9199 171.385 15.183 171.239 15.4754C170.036 17.8811 164.857 45.2205 165.459 46.6238C165.772 47.3547 171.644 48.5993 177.282 49.5807C177.111 48.2234 176.952 46.866 176.769 45.5128C176.505 43.5624 176.146 41.3572 176.672 39.4151C177.19 37.4939 178.59 37.2141 180.427 37.2475C183.347 37.2976 186.249 37.4981 189.177 37.519C190.133 36.7923 191.407 35.9779 191.524 35.4892C191.558 35.3514 191.591 35.1885 191.624 35.0131C188.918 34.8586 186.237 34.5662 183.522 34.1318L183.518 34.1402Z" fill="#DBF1CE"/>
<path d="M190.675 17.6182C188.06 25.7624 185.22 30.7993 185.22 30.7993C181.382 25.2529 180.217 18.2447 180.497 13.8218C182.405 14.1392 184.481 14.6988 186.607 15.5425C187.843 16.0311 189.313 16.7913 190.675 17.6182Z" fill="#F4715B"/>
<path d="M182.601 20.1411L183.853 21.1167C185.088 22.0794 186.87 21.8584 187.833 20.6231L192.603 14.5023C193.566 13.2669 193.345 11.485 192.109 10.5223L190.858 9.54672C189.622 8.58399 187.84 8.80499 186.878 10.0403L182.108 16.1611C181.145 17.3965 181.366 19.1784 182.601 20.1411Z" fill="#F4715B"/>
<path d="M192.208 10.5981C190.324 12.0683 188.273 13.1667 186.302 14.5199C184.652 15.6517 184.185 18.0156 186.047 19.2268C186.728 19.6695 187.597 19.8073 188.436 19.8575L192.609 14.5032C193.548 13.3003 193.36 11.5796 192.208 10.6023V10.5981Z" fill="#DD553E"/>
<path d="M175.022 56.7913L175.72 56.5901C176.414 56.3903 176.815 55.6659 176.615 54.9721L175.211 50.1C175.011 49.4062 174.287 49.0058 173.593 49.2056L172.895 49.4068C172.201 49.6067 171.801 50.3311 172.001 51.0248L173.404 55.897C173.604 56.5908 174.328 56.9911 175.022 56.7913Z" fill="#FE856A"/>
<path d="M176.146 13.5218C170.599 12.9872 168.089 14.875 166.419 26.1056C164.748 37.3362 170.562 53.7123 170.562 53.7123L177.445 52.1085C177.445 52.1085 175.44 39.6751 174.905 34.7301C174.371 29.7851 176.242 24.1009 176.643 20.6929C177.044 17.2848 176.142 13.526 176.142 13.526L176.146 13.5218Z" fill="#E9FDDE"/>
<path d="M175.04 54.1143C176.627 53.8512 177.045 54.4485 178.181 55.4508C179.317 56.4532 180.921 56.6536 180.319 56.8541C179.718 57.0546 178.047 56.7205 177.98 56.9209C177.914 57.1214 178.448 58.6584 178.649 58.8588C178.849 59.0593 180.921 61.1309 180.72 61.3982C180.52 61.6655 178.515 61.6655 178.114 61.6655C177.713 61.6655 176.043 59.8612 176.043 59.8612C176.043 59.8612 176.844 61.3146 176.895 61.5402C176.945 61.7657 176.794 61.891 176.343 61.49C175.892 61.0891 173.913 59.2347 173.662 58.7586C173.411 58.2825 173.186 55.952 173.286 55.2503C173.386 54.5487 174.639 54.1812 175.04 54.1143Z" fill="#FE856A"/>
<path d="M187.324 11.4387C189.596 8.98294 192.983 8.42747 194.887 10.19C196.792 11.9524 196.232 14.6379 193.956 17.0937C193.572 17.5072 193.167 17.8831 192.745 18.2214C192.448 18.9021 192.093 19.6163 191.922 19.6163C191.759 19.6163 191.542 19.3866 191.362 19.1486C189.658 20.0716 187.9 20.2261 186.655 19.0776C184.751 17.3151 185.052 13.8945 187.324 11.4387Z" fill="#FE856A"/>
<path d="M192.956 16.6294C192.752 16.7088 192.568 16.7129 192.392 16.6837C192.217 16.6586 192.058 16.5918 191.908 16.5083C191.766 16.4122 191.628 16.2995 191.524 16.1491C191.419 16.0029 191.34 15.8233 191.34 15.602L191.369 15.5728C191.586 15.8025 191.849 15.9862 192.121 16.1449C192.388 16.312 192.672 16.4624 192.969 16.5835L192.956 16.6211V16.6294Z" fill="#4C022B"/>
<path d="M191.81 17.5804C191.993 17.4322 192.054 17.2046 191.946 17.0721C191.839 16.9395 191.603 16.9521 191.421 17.1003C191.238 17.2485 191.177 17.4761 191.285 17.6087C191.392 17.7413 191.627 17.7286 191.81 17.5804Z" fill="#5E0230"/>
<path d="M189.062 18.3823C189.062 18.3823 189.372 19.4473 190.031 19.6353" stroke="#DD553E" stroke-width="0.208825" stroke-miterlimit="10"/>
<path d="M191.241 14.2537C190.021 12.4871 187.327 14.0031 185.941 12.3618C184.554 10.7204 186.321 5.5499 189.349 5.04454C192.377 4.53918 197.359 5.04454 197.927 11.0378C197.927 11.0378 200.575 13.8152 198.875 14.7591C197.175 15.703 196.858 14.947 196.858 14.947C196.858 14.947 197.238 17.407 196.102 17.407C194.966 17.407 195.029 15.8283 195.029 15.8283C195.029 15.8283 193.074 16.9016 191.245 14.2496L191.241 14.2537Z" fill="#5E0230"/>
<path d="M185.771 14.0493C186.435 14.7718 187.517 14.776 188.185 14.0618C188.853 13.3477 188.861 12.1782 188.197 11.4557C187.533 10.7332 186.451 10.729 185.783 11.4432C185.115 12.1573 185.107 13.3268 185.771 14.0493Z" fill="#FE856A"/>
<path d="M187.5 11.6177C187.5 11.6177 188.281 12.7077 187.191 13.6767" stroke="#DD553E" stroke-width="0.208825" stroke-miterlimit="10"/>
<path d="M193.016 5.98783C195.434 5.92936 196.737 5.98783 196.549 4.85182C196.361 3.71581 197.368 3.08516 196.737 1.7612C196.106 0.437252 194.72 -0.256048 193.521 1.31849C192.323 2.89721 193.016 0.437252 191.186 2.26656C189.357 4.09587 190.368 6.05048 193.016 5.98783Z" fill="#4C022B"/>
<path d="M213.816 120.923C214.939 120.923 215.933 120.187 216.263 119.114L219.304 109.212C219.809 107.566 218.577 105.9 216.856 105.9C215.733 105.9 214.739 106.635 214.409 107.708L211.368 117.611C210.863 119.256 212.095 120.923 213.816 120.923Z" fill="#F48F7A"/>
<path d="M243.72 72.9214C235.776 73.8027 221.43 75.2269 219.584 76.9183C217.738 78.6098 208.207 111.663 208.207 111.663L221.275 115.2C221.275 115.2 229.653 88.9885 230.731 89.143C231.808 89.2975 246.025 89.9866 251.409 88.6042C253.952 87.9485 255.097 79.1486 253.869 74.922C252.641 70.6954 247.871 72.462 243.724 72.9214H243.72Z" fill="#2A32C4"/>
<path d="M217.048 116.992C217.048 116.992 214.792 118.583 213.828 118.12C212.863 117.656 211.769 115.935 211.518 116.006C211.267 116.077 208.298 119.155 207.413 119.719C206.527 120.283 204.297 120.684 203.733 121.331C203.169 121.975 202.497 123.023 202.605 123.265C202.714 123.507 203.332 123.265 211.142 123.265C218.956 123.265 219.357 123.265 219.437 123.023C219.516 122.781 218.284 116.436 217.048 116.992Z" fill="#000633"/>
<path d="M222.047 63.5904L229.494 63.7407C230.584 63.7616 231.411 62.7634 231.19 61.6984C231.027 60.9258 230.354 60.3661 229.565 60.3494L222.118 60.1991C221.028 60.1782 220.201 61.1764 220.423 62.2414C220.586 63.014 221.258 63.5737 222.047 63.5904Z" fill="#F48F7A"/>
<path d="M246.487 38.8125C250.12 41.5732 248.892 61.8334 248.792 63.0613C248.692 64.2892 225.203 65.0786 225.203 65.0786L225.408 56.3747C225.408 56.3747 240.293 55.3807 240.293 54.6624C240.293 53.944 239.984 46.7771 240.293 41.2474C240.602 35.7177 245.179 37.8185 246.491 38.8167L246.487 38.8125Z" fill="#C25275"/>
<path d="M223.558 60.6762C221.578 59.2437 220.417 59.5151 217.823 59.5151C215.23 59.5151 213.793 62.3134 213.521 63.0652C213.25 63.8169 217.138 63.6123 217.481 63.6123C217.823 63.6123 219.051 62.518 219.323 62.9983C219.594 63.4786 222.121 63.5455 222.939 63.6123C223.758 63.6791 223.553 60.6762 223.553 60.6762H223.558Z" fill="#F48F7A"/>
<path d="M222.944 62.9278C223.466 61.2322 221.307 61.1528 219.327 61.5621C217.347 61.9714 216.8 61.2197 216.734 61.9714C216.667 62.7232 217.69 62.861 219.194 63.404C220.697 63.9511 222.677 63.8133 222.948 62.9278H222.944Z" fill="#F48F7A"/>
<path d="M251.246 56.3188C242.938 56.3188 241.406 71.3835 240.637 77.2264C239.869 83.0694 250.477 83.0694 258.007 82.6058C265.542 82.1464 264.619 74.7665 262.927 69.2326C261.236 63.6987 258.776 56.3188 251.246 56.3188Z" fill="#3840EB"/>
<path d="M266.979 41.074C265.521 38.4511 259.945 34.1786 253.322 34.2454C246.698 34.3122 241.715 37.7286 241.51 38.3426C241.306 38.9565 240.963 67.0895 241.306 68.522C241.648 69.9545 262.581 69.9921 263.466 69.3114C264.352 68.6306 267.659 42.3061 266.979 41.074Z" fill="#F07193"/>
<path d="M260.193 47.1698C259.879 47.7921 259.758 48.5564 259.587 49.2288C259.061 51.2878 259.098 54.1446 256.484 54.2448C254.412 54.3283 252.291 53.5849 250.353 52.9543C249.388 52.641 247.446 51.4925 246.469 51.5886C244.856 51.7514 245.195 54.5789 245.082 55.7149C244.902 57.515 244.681 59.3235 244.359 61.1068C246.682 61.9505 249.225 62.3514 251.597 63.0238C254.212 63.7631 256.822 64.5274 259.424 65.3084C260.999 65.7803 262.573 66.2565 264.148 66.7367C264.983 62.2804 266.186 53.0462 266.754 46.9485C265.701 46.677 264.645 46.4347 263.575 46.2552C262.235 46.0338 260.911 45.7582 260.197 47.1698H260.193Z" fill="#C25275"/>
<path d="M253.436 38.4054L253.934 38.3496C255.614 38.1611 256.824 36.6462 256.635 34.966L255.841 27.8853C255.653 26.2051 254.138 24.9958 252.458 25.1842L251.959 25.2401C250.279 25.4286 249.07 26.9434 249.258 28.6236L250.053 35.7044C250.241 37.3846 251.756 38.5939 253.436 38.4054Z" fill="#F48F7A"/>
<path d="M247.039 27.144C246.454 30.4894 246.671 33.367 249.048 33.7847C251.424 34.1981 254.239 31.9595 254.824 28.6141C255.409 25.2688 253.955 22.2199 251.583 21.8064C249.207 21.393 247.628 23.8028 247.043 27.1482L247.039 27.144Z" fill="#FF9D86"/>
<path d="M247.27 29.8038C248.038 29.8455 248.494 30.234 249.145 30.5973C249.68 30.898 250.068 31.1069 250.72 31.0734C252.248 30.9983 253.405 29.9291 254.687 29.2065C253.894 32.2178 252.202 35.2458 248.477 34.1933C246.468 33.6253 246.748 31.9046 246.764 29.7996C246.932 29.7996 247.103 29.7954 247.27 29.8038Z" fill="#BC6D04"/>
<path d="M251.765 26.4952C251.527 26.7291 251.331 26.8294 251.147 26.8836C250.963 26.9421 250.8 26.9379 250.65 26.892C250.499 26.8419 250.362 26.7542 250.249 26.5996C250.132 26.4535 250.027 26.2572 249.965 25.9314L249.99 25.8521C250.299 25.9105 250.6 26.0149 250.905 26.0943C251.201 26.2029 251.502 26.2864 251.794 26.4159L251.769 26.4952H251.765Z" fill="#7C4605"/>
<path d="M248.264 25.4895C248.113 25.7568 248.005 25.8863 247.905 25.9656C247.804 26.0533 247.721 26.0784 247.646 26.0575C247.575 26.0366 247.512 25.974 247.466 25.8487C247.42 25.7276 247.387 25.5605 247.387 25.2556L247.408 25.1763C247.562 25.1763 247.704 25.2264 247.854 25.2514C247.996 25.3057 248.143 25.335 248.28 25.406L248.26 25.4853L248.264 25.4895Z" fill="#7C4605"/>
<path d="M250.661 28.0595C250.732 27.7799 250.676 27.5249 250.538 27.4899C250.399 27.4549 250.229 27.6532 250.159 27.9328C250.088 28.2123 250.144 28.4673 250.282 28.5023C250.421 28.5373 250.591 28.339 250.661 28.0595Z" fill="#9B5807"/>
<path d="M247.72 27.1796C247.79 26.9 247.735 26.645 247.596 26.61C247.458 26.575 247.288 26.7733 247.218 27.0529C247.147 27.3324 247.202 27.5874 247.341 27.6224C247.48 27.6574 247.649 27.4591 247.72 27.1796Z" fill="#9B5807"/>
<path d="M248.476 27.9663C248.476 27.9663 247.369 29.2026 247.603 29.3028C247.837 29.403 248.4 29.5617 248.4 29.5617" stroke="#DA5064" stroke-width="0.208825" stroke-miterlimit="10"/>
<path d="M249.019 31.3859C248.943 31.3859 248.041 31.4109 247.344 30.8179" stroke="#771C1C" stroke-width="0.208825" stroke-miterlimit="10"/>
<path d="M255.169 29.073C254.063 29.0229 253.574 28.6595 253.599 27.4776C253.624 26.2956 253.16 26.3458 253.29 26.0116C253.419 25.6775 254.347 24.5958 253.394 23.8774C252.442 23.1591 251.31 23.6979 250.383 23.2343C249.456 22.7707 249.172 22.1024 249.172 21.8184C249.172 21.5344 250.692 20.1729 253.444 20.8411C256.197 21.5094 258.051 23.2092 257.767 25.7569C257.483 28.3045 256.376 29.8749 255.683 30.0294C254.99 30.184 255.169 29.0772 255.169 29.0772V29.073Z" fill="#BC6D04"/>
<path d="M253.979 29.0141C253.707 29.7534 254.083 30.4675 254.814 30.6137C255.545 30.7599 256.36 30.2796 256.627 29.5403C256.894 28.8011 256.522 28.0869 255.792 27.9407C255.061 27.7946 254.246 28.2749 253.979 29.0141Z" fill="#FF9D86"/>
<path d="M255.94 28.5838C255.94 28.5838 254.884 28.4293 254.449 29.2771" stroke="#DA5064" stroke-width="0.208825" stroke-miterlimit="10"/>
<path d="M250.36 29.8708C251.269 29.8708 252.006 29.093 252.006 28.1334C252.006 27.1739 251.269 26.396 250.36 26.396C249.452 26.396 248.715 27.1739 248.715 28.1334C248.715 29.093 249.452 29.8708 250.36 29.8708Z" stroke="#771C1C" stroke-width="0.208825" stroke-miterlimit="10"/>
<path d="M247.092 28.2579C247.874 28.2579 248.507 27.5904 248.507 26.7669C248.507 25.9434 247.874 25.2759 247.092 25.2759C246.31 25.2759 245.676 25.9434 245.676 26.7669C245.676 27.5904 246.31 28.2579 247.092 28.2579Z" stroke="#771C1C" stroke-width="0.208825" stroke-miterlimit="10"/>
<path d="M249.233 26.9093L248.535 26.5835" stroke="#771C1C" stroke-width="0.208825" stroke-miterlimit="10"/>
<path d="M251.602 26.9888L254.959 27.9327" stroke="#771C1C" stroke-width="0.208825" stroke-miterlimit="10"/>
<path d="M242.112 56.8761L249.371 58.5509C250.436 58.7973 251.451 57.9871 251.451 56.897C251.451 56.1077 250.904 55.4227 250.136 55.2431L242.877 53.5683C241.812 53.3219 240.797 54.1322 240.797 55.2222C240.797 56.0116 241.344 56.6965 242.112 56.8761Z" fill="#FF9D86"/>
<path d="M266.144 39.9053C269.778 42.666 268.55 62.9262 268.449 64.1541C268.349 65.382 259.332 64.3587 252.884 62.6171C246.435 60.8755 245.508 60.4662 245.508 60.4662L245.712 51.7624C245.712 51.7624 259.95 56.4735 259.95 55.7551C259.95 55.0368 259.641 47.8699 259.95 42.3402C260.259 36.8105 264.837 38.9113 266.148 39.9095L266.144 39.9053Z" fill="#DB6685"/>
<path d="M243.526 55.138C243.68 53.7305 242.979 52.6447 241.684 52.0641C240.389 51.4836 240.113 50.1847 239.909 50.4938C239.704 50.8028 239.704 52.0975 240.832 52.8159C240.832 52.8159 235.436 49.9132 235.336 50.1889C235.235 50.4645 237.315 51.7926 237.382 51.8971C237.449 52.0015 237.791 55.5515 238.338 56.0945C238.886 56.6374 242.778 57.0843 243.083 56.7752C243.388 56.4662 243.492 55.4429 243.526 55.138Z" fill="#F07193"/>
<path d="M223.972 120.924C225.096 120.924 226.09 120.189 226.419 119.115L229.46 109.213C229.965 107.567 228.733 105.901 227.013 105.901C225.889 105.901 224.895 106.636 224.565 107.709L221.525 117.612C221.019 119.257 222.251 120.924 223.972 120.924Z" fill="#FF9D86"/>
<path d="M253.872 72.9227C245.928 73.8039 231.582 75.2281 229.736 76.9196C227.89 78.6111 218.359 111.664 218.359 111.664L231.428 115.201C231.428 115.201 239.806 88.9897 240.883 89.1442C241.961 89.2987 256.178 89.9879 261.561 88.6054C264.105 87.9497 265.249 79.1498 264.021 74.9232C262.793 70.6966 258.024 72.4632 253.876 72.9227H253.872Z" fill="#3840EB"/>
<path d="M227.204 116.993C227.204 116.993 224.949 118.584 223.984 118.121C223.019 117.657 221.925 115.937 221.674 116.008C221.424 116.079 218.454 119.157 217.569 119.72C216.683 120.284 214.453 120.685 213.889 121.333C213.325 121.98 212.653 123.024 212.762 123.266C212.87 123.509 213.488 123.266 221.298 123.266C229.108 123.266 229.514 123.266 229.593 123.024C229.672 122.782 228.44 116.438 227.204 116.993Z" fill="#01085A"/>
<path d="M246.853 92.3724C246.665 92.0884 242.288 85.3058 242.664 76.3472L243.908 76.4015C243.549 84.9675 247.851 91.6248 247.892 91.6917L246.848 92.3766L246.853 92.3724Z" fill="#0D1382"/>
<path d="M258.65 92.3726L257.605 91.6877C257.647 91.6209 261.949 84.9426 261.59 76.3975L261.778 76.3891C262.367 76.3641 262.86 76.836 262.86 77.4249C262.864 85.8447 258.825 92.097 258.65 92.3685V92.3726Z" fill="#0D1382"/>
<path d="M251.744 73.6659C242.543 73.6158 240.492 78.8155 240.492 78.8155H242.827C242.827 78.8155 244.188 74.9439 253.389 74.994C263.367 75.0483 263.952 78.8155 263.952 78.8155L264.006 78.2851C264.006 78.2851 261.726 73.7202 251.744 73.6659Z" fill="#01085A"/>
<path d="M153.467 67.0405L277.066 67.0405V64.1587L153.467 64.1587V67.0405Z" fill="#97CCCC"/>
<path d="M240.555 67.0405H277.066V64.1587H240.555V67.0405Z" fill="#79B2B1"/>
<path d="M266.081 123.089L261.002 72.5239C260.827 70.7363 259.323 69.3706 257.527 69.3706H260.142C261.938 69.3706 263.441 70.7321 263.617 72.5239L268.695 123.089H266.081Z" fill="#97CCCC"/>
<path d="M260.137 69.3747H255.259C253.463 69.3747 251.96 70.7362 251.784 72.5279L246.794 123.193H242.016L247.157 70.9033C247.378 68.648 249.274 66.9272 251.542 66.9272H257.694C259.582 66.9272 261.211 68.1217 261.829 69.8216C261.324 69.5376 260.743 69.3747 260.129 69.3747H260.137Z" fill="#97CCCC"/>
<path d="M263.616 72.5279C263.441 70.7404 261.937 69.3747 260.141 69.3747H255.263C253.467 69.3747 251.964 70.7362 251.788 72.5279L246.797 123.193H245.098L250.239 70.9033C250.46 68.648 252.356 66.9272 254.624 66.9272H260.776C263.044 66.9272 264.94 68.648 265.162 70.9033L270.303 123.193H268.703L263.612 72.5279H263.616Z" fill="#79B2B1"/>
<path d="M178.925 123.089L173.846 72.5239C173.671 70.7363 172.167 69.3706 170.371 69.3706H172.986C174.781 69.3706 176.285 70.7321 176.46 72.5239L181.539 123.089H178.925Z" fill="#97CCCC"/>
<path d="M172.97 69.3747H168.091C166.295 69.3747 164.792 70.7362 164.617 72.5279L159.626 123.193H154.848L159.989 70.9033C160.21 68.648 162.106 66.9272 164.374 66.9272H170.526C172.414 66.9272 174.043 68.1217 174.661 69.8216C174.156 69.5376 173.575 69.3747 172.961 69.3747H172.97Z" fill="#97CCCC"/>
<path d="M176.452 72.5279C176.277 70.7404 174.773 69.3747 172.977 69.3747H168.099C166.303 69.3747 164.8 70.7362 164.624 72.5279L159.633 123.193H157.934L163.075 70.9033C163.296 68.648 165.192 66.9272 167.46 66.9272H173.612C175.88 66.9272 177.776 68.648 177.998 70.9033L183.139 123.193H181.539L176.448 72.5279H176.452Z" fill="#79B2B1"/>
<path d="M191.771 53.9384H227.042L224.72 31.0679H189.449L191.771 53.9384Z" fill="#0A1987"/>
<path d="M227.041 53.9385L228.006 53.3622L225.579 29.9194L224.719 31.068L227.041 53.9385Z" fill="#01085A"/>
<path d="M190.353 29.9194L189.492 31.068H224.721L225.444 30.0865L190.353 29.9194Z" fill="#122DAF"/>
<path d="M205.386 37.9731C205.499 38.8961 206.221 39.6479 206.998 39.6479C207.775 39.6479 208.318 38.8961 208.205 37.9731C208.092 37.0501 207.37 36.2983 206.593 36.2983C205.816 36.2983 205.273 37.0501 205.386 37.9731Z" fill="#122DAF"/>
<path d="M202.922 62.8846L203.464 64.1375H212.193L211.604 62.776C211.057 61.5105 210.736 60.1615 210.648 58.7874L209.855 45.5396H205.816L202.429 58.6997C202.178 60.1156 202.349 61.5732 202.917 62.8888L202.922 62.8846ZM205.757 51.3198C205.853 50.4428 206.472 49.7286 207.136 49.7286C207.8 49.7286 208.263 50.4428 208.171 51.3198C208.08 52.1969 207.457 52.9111 206.793 52.9111C206.129 52.9111 205.666 52.1969 205.757 51.3198Z" fill="#01085A"/>
<path d="M201.863 62.8846L202.406 64.1375H211.135L210.546 62.776C209.999 61.5105 209.673 60.1615 209.589 58.7874L208.796 45.5396H204.757L201.37 58.6997C201.12 60.1156 201.291 61.5732 201.859 62.8888L201.863 62.8846ZM204.799 51.3198C204.895 50.4428 205.513 49.7286 206.177 49.7286C206.841 49.7286 207.305 50.4428 207.213 51.3198C207.121 52.1969 206.499 52.9111 205.835 52.9111C205.171 52.9111 204.707 52.1969 204.799 51.3198Z" fill="#2348CC"/>
<path d="M202.028 63.2772L201.861 62.8888C201.694 62.5045 201.565 62.1078 201.469 61.7026H210.139C210.256 62.066 210.39 62.4252 210.544 62.776L210.761 63.2772H202.033H202.028Z" fill="#2E60E8"/>
<path d="M201.298 60.7368C201.227 60.0602 201.248 59.3711 201.369 58.6945L201.549 57.688H209.518L209.585 58.7822C209.626 59.4421 209.723 60.0937 209.869 60.7327H201.294L201.298 60.7368Z" fill="#2E60E8"/>
<path d="M218.769 63.0386H211.656V64.137H218.769V63.0386Z" fill="#01085A"/>
</g>
<defs>
<clipPath id="clip0_2636_12092">
<rect width="284.002" height="125.713" fill="white" transform="translate(0.753906 0.35791)"/>
</clipPath>
</defs>
</svg>
