<svg width="41" height="41" viewBox="0 0 41 41" fill="none" xmlns="http://www.w3.org/2000/svg">
<path d="M16.084 30.9961V19.9961M11.084 21.9961V28.9961C11.084 30.1007 11.9794 30.9961 13.084 30.9961H26.5102C27.9909 30.9961 29.2502 29.9158 29.4753 28.4523L30.5523 21.4523C30.8318 19.635 29.4258 17.9961 27.5872 17.9961H24.084C23.5317 17.9961 23.084 17.5484 23.084 16.9961V13.4619C23.084 12.1001 21.98 10.9961 20.6181 10.9961C20.2933 10.9961 19.999 11.1874 19.867 11.4842L16.3479 19.4022C16.1874 19.7634 15.8293 19.9961 15.4341 19.9961H13.084C11.9794 19.9961 11.084 20.8915 11.084 21.9961Z" stroke="#939393" stroke-width="2" stroke-linecap="round" stroke-linejoin="round"/>
</svg>
