<svg width="21" height="21" viewBox="0 0 21 21" fill="none" xmlns="http://www.w3.org/2000/svg">
<path d="M17.583 10.1829L7.58301 10.1829M17.583 5.18285L7.58301 5.18285M17.583 15.1829L7.58301 15.1829M4.24967 10.1829C4.24967 10.6431 3.87658 11.0162 3.41634 11.0162C2.9561 11.0162 2.58301 10.6431 2.58301 10.1829C2.58301 9.72261 2.9561 9.34952 3.41634 9.34952C3.87658 9.34952 4.24967 9.72261 4.24967 10.1829ZM4.24967 5.18285C4.24967 5.64309 3.87658 6.01618 3.41634 6.01618C2.9561 6.01618 2.58301 5.64309 2.58301 5.18285C2.58301 4.72261 2.9561 4.34952 3.41634 4.34952C3.87658 4.34952 4.24967 4.72261 4.24967 5.18285ZM4.24967 15.1829C4.24967 15.6431 3.87658 16.0162 3.41634 16.0162C2.9561 16.0162 2.58301 15.6431 2.58301 15.1829C2.58301 14.7226 2.9561 14.3495 3.41634 14.3495C3.87658 14.3495 4.24967 14.7226 4.24967 15.1829Z" stroke="#101012" stroke-width="1.66667" stroke-linecap="round" stroke-linejoin="round"/>
</svg>
