<svg width="92" height="21" viewBox="0 0 92 21" fill="none" xmlns="http://www.w3.org/2000/svg">
<path d="M42.867 19.499H30.9222V17.658L39.5575 5.84464H31.0975V3.76251H42.5602V5.64738L33.9029 17.4169H42.867V19.499ZM50.4305 19.499H48.0196V3.76251H50.4305V19.499ZM66.9916 19.499L58.7069 7.2035V19.499H56.4714V3.76251H59.1014L67.1889 15.7293V3.76251H69.4244V19.499H66.9916ZM82.5768 19.8278C78.0399 19.8278 74.5332 16.3868 74.5332 11.6088C74.5332 6.96241 77.8646 3.43375 82.4453 3.43375C86.4999 3.43375 89.2396 5.91039 90.2039 9.17604H87.3985C86.8068 7.15967 85.0753 5.60355 82.3795 5.60355C79.2673 5.60355 77.0317 7.94868 77.0317 11.6527C77.0317 15.1375 79.1577 17.7676 82.6644 17.7676C85.5794 17.7676 87.4205 15.9704 87.8588 13.2746H82.4234V11.3458H90.4012C90.4889 16.3868 87.3985 19.8278 82.5768 19.8278Z" fill="#101012"/>
<path d="M0.0654297 8.16846C0.0654297 4.02632 3.42329 0.668457 7.56543 0.668457H14.2321C17.4538 0.668457 20.0654 3.28013 20.0654 6.50179V13.1685C20.0654 17.3106 16.7076 20.6685 12.5654 20.6685H0.0654297V8.16846Z" fill="#101012"/>
<path d="M1.31543 8.99903C1.31543 6.2376 3.55401 3.99902 6.31543 3.99902H11.7321C14.4935 3.99902 16.7321 6.2376 16.7321 8.99902V14.4157C16.7321 17.1771 14.4935 19.4157 11.7321 19.4157H1.31543V8.99903Z" fill="white"/>
<path d="M11.8003 5.55371L12.572 7.51925C12.6801 7.79476 12.7342 7.93251 12.8183 8.04838C12.8928 8.15108 12.9844 8.2408 13.0892 8.31382C13.2075 8.39621 13.3481 8.4492 13.6294 8.55516L15.6357 9.31114L13.6294 10.0671C13.3481 10.1731 13.2075 10.2261 13.0892 10.3085C12.9844 10.3815 12.8928 10.4712 12.8183 10.5739C12.7342 10.6898 12.6801 10.8275 12.572 11.103L11.8003 13.0686L11.0286 11.103C10.9204 10.8275 10.8664 10.6898 10.7823 10.5739C10.7077 10.4712 10.6161 10.3815 10.5113 10.3085C10.393 10.2261 10.2524 10.1731 9.97119 10.0671L7.96484 9.31114L9.97119 8.55516C10.2524 8.4492 10.393 8.39621 10.5113 8.31382C10.6161 8.2408 10.7077 8.15108 10.7823 8.04838C10.8664 7.93251 10.9204 7.79476 11.0286 7.51925L11.8003 5.55371Z" fill="#101012"/>
</svg>
