<svg width="33" height="33" viewBox="0 0 33 33" fill="none" xmlns="http://www.w3.org/2000/svg">
<path d="M0.472656 12.356C0.472656 5.72854 5.84524 0.355957 12.4727 0.355957H23.1393C28.294 0.355957 32.4727 4.53463 32.4727 9.68929V20.356C32.4727 26.9834 27.1001 32.356 20.4727 32.356H0.472656V12.356Z" fill="#3840EB"/>
<path d="M2.47266 13.6851C2.47266 9.26678 6.05438 5.68506 10.4727 5.68506H19.1393C23.5576 5.68506 27.1393 9.26678 27.1393 13.6851V22.3517C27.1393 26.77 23.5576 30.3517 19.1393 30.3517H2.47266V13.6851Z" fill="white"/>
<path d="M19.25 8.17285L20.4847 11.3177C20.6577 11.7585 20.7442 11.9789 20.8788 12.1643C20.9981 12.3286 21.1446 12.4722 21.3123 12.589C21.5016 12.7209 21.7266 12.8056 22.1765 12.9752L25.3867 14.1847L22.1765 15.3943C21.7266 15.5638 21.5016 15.6486 21.3123 15.7804C21.1446 15.8973 20.9981 16.0408 20.8788 16.2051C20.7442 16.3905 20.6577 16.6109 20.4847 17.0517L19.25 20.1966L18.0153 17.0517C17.8422 16.6109 17.7557 16.3905 17.6211 16.2051C17.5019 16.0408 17.3553 15.8973 17.1876 15.7804C16.9984 15.6486 16.7734 15.5638 16.3234 15.3943L13.1133 14.1847L16.3234 12.9752C16.7734 12.8056 16.9984 12.7209 17.1876 12.589C17.3553 12.4722 17.5019 12.3286 17.6211 12.1643C17.7557 11.9789 17.8422 11.7585 18.0153 11.3177L19.25 8.17285Z" fill="#3840EB"/>
</svg>
