<svg width="21" height="21" viewBox="0 0 21 21" fill="none" xmlns="http://www.w3.org/2000/svg">
<path d="M1.96582 6.3335L8.76992 11.0964C9.3209 11.482 9.59638 11.6749 9.89604 11.7496C10.1607 11.8156 10.4376 11.8156 10.7023 11.7496C11.0019 11.6749 11.2774 11.482 11.8284 11.0964L18.6325 6.3335M5.96582 17.1668H14.6325C16.0326 17.1668 16.7327 17.1668 17.2675 16.8943C17.7379 16.6547 18.1203 16.2722 18.36 15.8018C18.6325 15.267 18.6325 14.567 18.6325 13.1668V7.8335C18.6325 6.43336 18.6325 5.7333 18.36 5.19852C18.1203 4.72811 17.7379 4.34566 17.2675 4.10598C16.7327 3.8335 16.0326 3.8335 14.6325 3.8335H5.96582C4.56569 3.8335 3.86562 3.8335 3.33084 4.10598C2.86044 4.34566 2.47799 4.72811 2.2383 5.19852C1.96582 5.7333 1.96582 6.43336 1.96582 7.8335V13.1668C1.96582 14.567 1.96582 15.267 2.2383 15.8018C2.47799 16.2722 2.86044 16.6547 3.33084 16.8943C3.86562 17.1668 4.56569 17.1668 5.96582 17.1668Z" stroke="#3840EB" stroke-width="1.66667" stroke-linecap="round" stroke-linejoin="round"/>
</svg>
