<svg width="18" height="13" viewBox="0 0 18 13" fill="none" xmlns="http://www.w3.org/2000/svg">
<path d="M5.60938 12.5435C4.48958 12.5435 3.52083 12.3091 2.70312 11.8403C1.89062 11.3664 1.26302 10.6945 0.820312 9.82471C0.382812 8.95492 0.164062 7.92367 0.164062 6.73096C0.164062 5.53304 0.382812 4.50179 0.820312 3.63721C1.26302 2.76742 1.89062 2.09814 2.70312 1.62939C3.52083 1.15544 4.48958 0.918457 5.60938 0.918457C6.72917 0.918457 7.69531 1.15544 8.50781 1.62939C9.32552 2.09814 9.95312 2.76742 10.3906 3.63721C10.8333 4.50179 11.0547 5.53304 11.0547 6.73096C11.0547 7.92367 10.8333 8.95492 10.3906 9.82471C9.95312 10.6945 9.32552 11.3664 8.50781 11.8403C7.69531 12.3091 6.72917 12.5435 5.60938 12.5435ZM5.60938 11.3872C6.41667 11.3872 7.11198 11.1997 7.69531 10.8247C8.28385 10.4445 8.73698 9.90544 9.05469 9.20752C9.3724 8.5096 9.53125 7.68408 9.53125 6.73096C9.53125 5.77262 9.3724 4.9471 9.05469 4.25439C8.73698 3.55648 8.28385 3.02002 7.69531 2.64502C7.11198 2.26481 6.41667 2.07471 5.60938 2.07471C4.80729 2.07471 4.11198 2.26481 3.52344 2.64502C2.9349 3.02002 2.48177 3.55648 2.16406 4.25439C1.84635 4.9471 1.6875 5.77262 1.6875 6.73096C1.6875 7.68408 1.84635 8.5096 2.16406 9.20752C2.48177 9.90544 2.9349 10.4445 3.52344 10.8247C4.11198 11.1997 4.80729 11.3872 5.60938 11.3872ZM13.0391 12.356V3.91846H14.2734V5.70752L14.2266 5.50439C14.4766 4.92106 14.8516 4.48096 15.3516 4.18408C15.8568 3.882 16.3672 3.73096 16.8828 3.73096C17.0339 3.73096 17.1797 3.74398 17.3203 3.77002C17.4661 3.79606 17.6016 3.84033 17.7266 3.90283L17.5547 5.13721C17.2682 5.04867 16.9844 5.00439 16.7031 5.00439C16.526 5.00439 16.3047 5.04085 16.0391 5.11377C15.7786 5.18148 15.5182 5.3221 15.2578 5.53564C15.0026 5.74398 14.7865 6.05648 14.6094 6.47314C14.4375 6.88981 14.3516 7.4445 14.3516 8.13721V12.356H13.0391Z" fill="#747474"/>
</svg>
