<svg width="41" height="41" viewBox="0 0 41 41" fill="none" xmlns="http://www.w3.org/2000/svg">
<path d="M19.1284 22.1703L28.2284 13.0703M19.239 22.4546L21.5167 28.3115C21.7173 28.8275 21.8177 29.0855 21.9622 29.1608C22.0876 29.2261 22.2368 29.2262 22.3622 29.161C22.5069 29.0859 22.6075 28.828 22.8088 28.3123L28.5204 13.6762C28.7021 13.2107 28.7929 12.9779 28.7432 12.8292C28.7001 12.7 28.5987 12.5986 28.4695 12.5555C28.3208 12.5058 28.088 12.5966 27.6225 12.7783L12.9864 18.4899C12.4707 18.6912 12.2128 18.7918 12.1377 18.9365C12.0725 19.0619 12.0726 19.2111 12.1379 19.3365C12.2132 19.481 12.4712 19.5813 12.9872 19.782L18.8441 22.0597C18.9488 22.1004 19.0012 22.1208 19.0453 22.1522C19.0844 22.1801 19.1186 22.2143 19.1464 22.2534C19.1779 22.2975 19.1983 22.3499 19.239 22.4546Z" stroke="#939393" stroke-width="1.73333" stroke-linecap="round" stroke-linejoin="round"/>
</svg>
