<svg width="41" height="40" viewBox="0 0 41 40" fill="none" xmlns="http://www.w3.org/2000/svg">
<path d="M28.6035 29C28.6035 27.6044 28.6035 26.9067 28.4313 26.3389C28.0435 25.0605 27.0431 24.06 25.7647 23.6722C25.1969 23.5 24.4991 23.5 23.1035 23.5H18.1035C16.708 23.5 16.0102 23.5 15.4424 23.6722C14.164 24.06 13.1636 25.0605 12.7758 26.3389C12.6035 26.9067 12.6035 27.6044 12.6035 29M25.1035 15.5C25.1035 17.9853 23.0888 20 20.6035 20C18.1182 20 16.1035 17.9853 16.1035 15.5C16.1035 13.0147 18.1182 11 20.6035 11C23.0888 11 25.1035 13.0147 25.1035 15.5Z" stroke="#101012" stroke-width="2" stroke-linecap="round" stroke-linejoin="round"/>
</svg>
